# xmcd
#
# Track frame offsets:
#  300
#  12417
#  24543
#  37888
#  51969
#  64084
#  73933
#  88761
#  100286
#  112636
#  123696
#  138549
#  150236
#  162736
#  175091
#
# Disc length: 2489 seconds
#
# Revision: 1
# Processed by: cddbd v1.5.1PL0 Copyright (c) Steve Scherf et al.
# Submitted via: Collectorz.com Music Collector 6.9
#
DISCID=cb09b50f
DTITLE=Various Artist - All Time Classic Ballads
DYEAR=2004
DGENRE=Country
TTITLE0=Hank Williams - Take These Chains From My Heart
TTITLE1=Ernest Tubb - Walking The Floor Over You
TTITLE2=Kenny Rogers - Ruby, Don't Take Your Heart To Town
TTITLE3=Bill Monroe - Blue Moon of Kentucky
TTITLE4=Rodger Miller - Little Green Apples
TTITLE5=Ned Miller - From A Jack To A King
TTITLE6=Loretta Lynn - Coal Miner's Daughter
TTITLE7=Hank Locklin - Send Me The Pillow That You Dream On
TTITLE8=Frankie Laine - High Noon
TTITLE9=Tom Jones - Green, Green, Grass of Home
TTITLE10=Red Foley - Old Shep
TTITLE11=Patsy Cline - Walking After Midnight
TTITLE12=Jonny Cash - I Walk The Line
TTITLE13=Merle Haggard - Okie From Muskogee
TTITLE14=Eddy Arnold - Boquuet of Roses
EXTD=
EXTT0=
EXTT1=
EXTT2=
EXTT3=
EXTT4=
EXTT5=
EXTT6=
EXTT7=
EXTT8=
EXTT9=
EXTT10=
EXTT11=
EXTT12=
EXTT13=
EXTT14=
PLAYORDER=
